<svg xmlns="http://www.w3.org/2000/svg" width="40" height="40" fill="none">
<symbol id="floppy">
      <path
        fill="currentColor" 
        d="M-.5-.5h3v3h-3zM-.5 2.5h3v3h-3zM-.5 5.5h3v3h-3zM-.5 8.5h3v3h-3zM-.5 11.5h3v3h-3zM-.5 14.5h3v3h-3zM-.5 17.5h3v3h-3zM-.5 20.5h3v3h-3zM-.5 23.5h3v3h-3zM-.5 26.5h3v3h-3zM-.5 29.5h3v3h-3zM-.5 32.5h3v3h-3zM-.5 35.5h3v3h-3zM32.5-.5v3h-3v-3zM29.5-.5v3h-3v-3zM26.5-.5v3h-3v-3zM23.5-.5v3h-3v-3zM20.5-.5v3h-3v-3zM17.5-.5v3h-3v-3zM14.5-.5v3h-3v-3zM11.5-.5v3h-3v-3zM8.5-.5v3h-3v-3zM5.5-.5v3h-3v-3zM35.5 2.5v3h-3v-3zM8.5 5.5v3h-3v-3zM8.5 2.5v3h-3v-3zM8.5 8.5v3h-3v-3zM29.5 5.5v3h-3v-3zM29.5 2.5v3h-3v-3zM29.5 8.5v3h-3v-3zM23.5 5.5v3h-3v-3zM23.5 2.5v3h-3v-3zM23.5 8.5v3h-3v-3zM29.5 11.5v3h-3v-3zM26.5 11.5v3h-3v-3zM23.5 11.5v3h-3v-3zM20.5 11.5v3h-3v-3zM17.5 11.5v3h-3v-3zM14.5 11.5v3h-3v-3zM11.5 11.5v3h-3v-3zM8.5 11.5v3h-3v-3zM32.5 20.5v3h-3v-3zM29.5 20.5v3h-3v-3zM26.5 20.5v3h-3v-3zM23.5 20.5v3h-3v-3zM20.5 20.5v3h-3v-3zM17.5 20.5v3h-3v-3zM14.5 20.5v3h-3v-3zM11.5 20.5v3h-3v-3zM8.5 20.5v3h-3v-3zM32.5 23.5v3h-3v-3zM8.5 23.5v3h-3v-3zM32.5 26.5v3h-3v-3zM8.5 26.5v3h-3v-3zM32.5 29.5v3h-3v-3zM8.5 29.5v3h-3v-3zM8.5 32.5v3h-3v-3zM32.5 32.5v3h-3v-3zM35.5 35.5v3h-3v-3zM32.5 35.5v3h-3v-3zM29.5 35.5v3h-3v-3zM26.5 35.5v3h-3v-3zM23.5 35.5v3h-3v-3zM20.5 35.5v3h-3v-3zM17.5 35.5v3h-3v-3zM14.5 35.5v3h-3v-3zM11.5 35.5v3h-3v-3zM8.5 35.5v3h-3v-3zM5.5 35.5v3h-3v-3zM38.5 38.5h-3v-3h3zM38.5 35.5h-3v-3h3zM38.5 32.5h-3v-3h3zM38.5 29.5h-3v-3h3zM38.5 26.5h-3v-3h3zM38.5 23.5h-3v-3h3zM38.5 20.5h-3v-3h3zM38.5 17.5h-3v-3h3zM38.5 14.5h-3v-3h3zM38.5 11.5h-3v-3h3zM38.5 8.5h-3v-3h3z"
      />
      <symbol/>
    </svg>